<?xml version="1.0" encoding="utf-8"?>
<!-- Generator: Adobe Illustrator 23.0.1, SVG Export Plug-In . SVG Version: 6.00 Build 0)  -->
<svg version="1.1" id="Capa_1" xmlns="http://www.w3.org/2000/svg" xmlns:xlink="http://www.w3.org/1999/xlink" x="0px" y="0px"
	 viewBox="0 0 256 256" style="enable-background:new 0 0 256 256;" xml:space="preserve">
<style type="text/css">
	.st0{fill:#FFFFFF;}
</style>
<path class="st0" d="M128,18C67.2,18,18,67.2,18,128s49.2,110,110,110s110-49.2,110-110S188.8,18,128,18z M159.1,134.1l29.6,29.6
	c3.4,3.4,3.4,8.8,0,12.2l-12.8,12.8c-3.4,3.4-8.8,3.4-12.2,0l-29.6-29.6c-3.4-3.4-8.8-3.4-12.2,0l-29.6,29.6
	c-3.4,3.4-8.8,3.4-12.2,0l-12.8-12.8c-3.4-3.4-3.4-8.8,0-12.2l29.6-29.6c3.4-3.4,3.4-8.8,0-12.2L67.3,92.3c-3.4-3.4-3.4-8.8,0-12.2
	l12.8-12.8c3.4-3.4,8.8-3.4,12.2,0l29.6,29.6c3.4,3.4,8.8,3.4,12.2,0l29.6-29.6c3.4-3.4,8.8-3.4,12.2,0l12.8,12.8
	c3.4,3.4,3.4,8.8,0,12.2l-29.6,29.6C155.8,125.3,155.8,130.7,159.1,134.1z"/>
</svg>
