<?xml version="1.0" encoding="utf-8"?>
<!-- Generator: Adobe Illustrator 23.0.1, SVG Export Plug-In . SVG Version: 6.00 Build 0)  -->
<svg version="1.1" id="Layer_1" xmlns="http://www.w3.org/2000/svg" xmlns:xlink="http://www.w3.org/1999/xlink" x="0px" y="0px"
	 viewBox="0 0 256 256" style="enable-background:new 0 0 256 256;" xml:space="preserve">
<g>
	<path d="M117.3,146.7c0-4.4-3.6-8-8-8h-40v32c0,5.9-4.8,10.7-10.7,10.7S48,176.6,48,170.7v-32H8c-4.4,0-8,3.6-8,8V248
		c0,4.4,3.6,8,8,8h101.3c4.4,0,8-3.6,8-8V146.7z"/>
	<path d="M256,146.7c0-4.4-3.6-8-8-8h-40v32c0,5.9-4.8,10.7-10.7,10.7s-10.7-4.8-10.7-10.7v-32h-40c-4.4,0-8,3.6-8,8V248
		c0,4.4,3.6,8,8,8H248c4.4,0,8-3.6,8-8V146.7z"/>
	<path d="M186.7,8c0-4.4-3.6-8-8-8h-40v32c0,5.9-4.8,10.7-10.7,10.7s-10.7-4.8-10.7-10.7V0h-40c-4.4,0-8,3.6-8,8v101.3
		c0,4.4,3.6,8,8,8h101.3c4.4,0,8-3.6,8-8V8z"/>
</g>
</svg>
