<?xml version="1.0" encoding="utf-8"?>
<!-- Generator: Adobe Illustrator 23.0.1, SVG Export Plug-In . SVG Version: 6.00 Build 0)  -->
<svg version="1.1" id="Layer_1" xmlns="http://www.w3.org/2000/svg" xmlns:xlink="http://www.w3.org/1999/xlink" x="0px" y="0px"
	 viewBox="0 0 256 256" style="enable-background:new 0 0 256 256;" xml:space="preserve">
<style type="text/css">
	.st0{fill:url(#SVGID_1_);}
</style>
<linearGradient id="SVGID_1_" gradientUnits="userSpaceOnUse" x1="121.1034" y1="-47.873" x2="134.8456" y2="462.3064" gradientTransform="matrix(1 0 0 1 3.5 -1.4498)">
	<stop  offset="9.483465e-07" style="stop-color:#CCD45C"/>
	<stop  offset="1" style="stop-color:#B3E738"/>
</linearGradient>
<path class="st0" d="M214.9,190.9l-59.4-59.4l9-9l50.3-50.3c5.6-5.4,5.6-14.7,0-20.1l-5.6-5.6c-2.7-2.7-6.3-4.2-10.1-4.2
	c-3.8,0-7.4,1.4-10.1,4.2l-35.3,35.3c0,0,0,0-0.1-0.1l-24.1,24.1L70.1,46.3c-2.7-2.7-6.3-4.2-10.1-4.2c-3.8,0-7.4,1.4-10.1,4.2
	l-5.6,5.6c-2.7,2.7-4.2,6.3-4.2,10.1c0,3.8,1.4,7.4,4.2,10.1l0.1,0.1c0,0,0,0,0,0l59.4,59.4l-59.6,59.4c-2.7,2.7-4.2,6.3-4.2,10.1
	c0,3.8,1.4,7.4,4.2,10.1l5.6,5.6c2.1,2.1,4.7,3.4,7.5,3.9c1,0.2,2,0.3,2.9,0.3c3.6,0,7.2-1.4,10.1-4.2l59.4-59.4l36,35.9l23.3,23.3
	c2.7,2.7,6.3,4.2,10.1,4.2c3.8,0,7.4-1.4,10.1-4.2l5.6-5.6c2.7-2.7,4.2-6.5,4.2-10.1C219,197.4,217.6,193.8,214.9,190.9z"/>
</svg>
