<?xml version="1.0" encoding="utf-8"?>
<!-- Generator: Adobe Illustrator 23.0.1, SVG Export Plug-In . SVG Version: 6.00 Build 0)  -->
<svg version="1.1" id="Layer_1" xmlns="http://www.w3.org/2000/svg" xmlns:xlink="http://www.w3.org/1999/xlink" x="0px" y="0px"
	 viewBox="0 0 256 256" style="enable-background:new 0 0 256 256;" xml:space="preserve">
<style type="text/css">
	.st0{fill:url(#SVGID_1_);}
	.st1{fill:url(#SVGID_2_);}
</style>
<g>
	<g>
		<linearGradient id="SVGID_1_" gradientUnits="userSpaceOnUse" x1="56.7292" y1="44.5963" x2="197.4835" y2="257.0773">
			<stop  offset="9.483465e-07" style="stop-color:#CCD45C"/>
			<stop  offset="1" style="stop-color:#B3E738"/>
		</linearGradient>
		<path class="st0" d="M206.6,86.4H49.4c-4.8,0-8.6,3.9-8.6,8.6l10,119.5c0,22.9,18.6,41.5,41.5,41.5h71.4
			c22.9,0,41.5-18.6,41.5-41.5l10-119.5C215.2,90.3,211.3,86.4,206.6,86.4z M113.4,204.1c0,5.8-6.4,10.6-14.4,10.6
			c-8,0-14.4-4.7-14.4-10.6L71,123.3c0-5.8,6.5-10.6,14.4-10.6c8,0,14.4,4.7,14.4,10.6L113.4,204.1z M171.4,204.1
			c0,5.8-6.4,10.6-14.4,10.6c-8,0-14.4-4.7-14.4-10.6l13.6-80.9c0-5.8,6.5-10.6,14.4-10.6c8,0,14.4,4.7,14.4,10.6L171.4,204.1z"/>
		<linearGradient id="SVGID_2_" gradientUnits="userSpaceOnUse" x1="97.938" y1="-0.6928" x2="250.6178" y2="229.7909">
			<stop  offset="9.483465e-07" style="stop-color:#CCD45C"/>
			<stop  offset="1" style="stop-color:#B3E738"/>
		</linearGradient>
		<path class="st1" d="M197.9,13.4h-37.5v-3.3c0-5.6-4.5-10.1-10.1-10.1h-44.6c-5.6,0-10.1,4.5-10.1,10.1v3.3H58.1
			c-14.4,0-26,11.7-26,26v16.7c0,3,2.4,5.4,5.4,5.4h181.1c3,0,5.4-2.4,5.4-5.4V39.4C224,25.1,212.3,13.4,197.9,13.4z"/>
	</g>
</g>
</svg>
