<?xml version="1.0" encoding="utf-8"?>
<!-- Generator: Adobe Illustrator 23.0.1, SVG Export Plug-In . SVG Version: 6.00 Build 0)  -->
<svg version="1.1" id="Capa_1" xmlns="http://www.w3.org/2000/svg" xmlns:xlink="http://www.w3.org/1999/xlink" x="0px" y="0px"
	 viewBox="0 0 256 256" style="enable-background:new 0 0 256 256;" xml:space="preserve">
<g>
	<path d="M165,75c-9.6,0-17.5-7.9-17.5-17.5V0H58C42.8,0,30.5,12.3,30.5,27.5v201c0,15.2,12.3,27.5,27.5,27.5h140
		c15.2,0,27.5-12.3,27.5-27.5V75H165z M71.5,180h36.4c4.1,0,7.5,3.4,7.5,7.5s-3.4,7.5-7.5,7.5H71.5c-4.1,0-7.5-3.4-7.5-7.5
		S67.4,180,71.5,180z M64,147.5c0-4.1,3.4-7.5,7.5-7.5h110c4.1,0,7.5,3.4,7.5,7.5s-3.4,7.5-7.5,7.5h-110C67.4,155,64,151.6,64,147.5
		z M181.5,100c4.1,0,7.5,3.4,7.5,7.5s-3.4,7.5-7.5,7.5h-110c-4.1,0-7.5-3.4-7.5-7.5s3.4-7.5,7.5-7.5H181.5z"/>
	<path d="M162.5,57.5c0,1.4,1.1,2.5,2.5,2.5h57.2c-1.4-2.5-3.1-4.9-5.3-6.9L168.7,7.5c-1.9-1.8-4-3.2-6.2-4.4L162.5,57.5L162.5,57.5
		z"/>
</g>
</svg>
