<?xml version="1.0" encoding="utf-8"?>
<!-- Generator: Adobe Illustrator 23.0.1, SVG Export Plug-In . SVG Version: 6.00 Build 0)  -->
<svg version="1.1" id="Layer_1" xmlns="http://www.w3.org/2000/svg" xmlns:xlink="http://www.w3.org/1999/xlink" x="0px" y="0px"
	 viewBox="0 0 256 256" style="enable-background:new 0 0 256 256;" xml:space="preserve">
<style type="text/css">
	.st0{fill:url(#SVGID_1_);}
</style>
<animateTransform attributeType="xml" attributeName="transform" type="rotate" from="360" to="0" dur="0.44s" additive="sum" repeatCount="indefinite" />
<linearGradient id="SVGID_1_" gradientUnits="userSpaceOnUse" x1="125.5563" y1="30.6745" x2="132.9174" y2="303.9586">
	<stop  offset="9.483465e-07" style="stop-color:#CCD45C"/>
	<stop  offset="1" style="stop-color:#B3E738"/>
</linearGradient>
<path class="st0" d="M115.3,214.5c-47.6-7.3-82.4-53.2-71.7-104.7c6.9-33.2,33.1-59.4,66.3-66.3c51.5-10.7,97.3,24.1,104.7,71.7
	c1.2,7.7,7.8,13.3,15.6,13.3h0c9.7,0,17.1-8.7,15.6-18.3C236.9,52.9,187,9.2,126.9,10C63,10.9,10.9,63,10,126.9
	c-0.8,60,42.9,110,100.3,118.9c9.6,1.5,18.3-5.9,18.3-15.6v0C128.6,222.4,123,215.7,115.3,214.5z"/>
</svg>
